<svg xmlns="http://www.w3.org/2000/svg"> 
  <symbol id="arrow" viewBox="0 0 14 24">
    <g>
      <path d="M13.0607 13.0607C13.6464 12.4749 13.6464 11.5251 13.0607 10.9393L3.51472 1.3934C2.92893 0.807611 1.97919 0.807611 1.3934 1.3934C0.807611 1.97919 0.807611 2.92893 1.3934 3.51472L9.87868 12L1.3934 20.4853C0.807611 21.0711 0.807611 22.0208 1.3934 22.6066C1.97919 23.1924 2.92893 23.1924 3.51472 22.6066L13.0607 13.0607ZM11 13.5H12V10.5H11V13.5Z"/>
    </g>
  </symbol>
  <symbol id="burger" viewBox="0 0 25 25">
    <g clip-path="url(#clip0_465_812)">
      <path d="M4.5 6.5H20.5V8.5H4.5V6.5ZM4.5 11.5H20.5V13.5H4.5V11.5ZM4.5 16.5H20.5V18.5H4.5V16.5Z" fill="#161E61"/>
    </g>
    <defs>
      <clipPath id="clip0_465_812">
        <rect width="24" height="24" fill="white" transform="translate(0.5 0.5)"/>
      </clipPath>
    </defs>
  </symbol>
  <symbol id="phone" viewBox="0 0 17 17">
    <g clip-path="url(#clip0_465_817)">
      <path d="M3.70833 7.41667C5.01389 10 6.97222 11.9583 9.58333 13.2917L11.5417 11.3333C11.7917 11.0556 12.0972 10.9861 12.4583 11.125C13.4583 11.4583 14.5139 11.625 15.625 11.625C15.8472 11.625 16.0486 11.7083 16.2292 11.875C16.4097 12.0417 16.5 12.25 16.5 12.5V15.625C16.5 15.8472 16.4097 16.0486 16.2292 16.2292C16.0486 16.4097 15.8472 16.5 15.625 16.5C12.875 16.5 10.3403 15.8264 8.02083 14.4792C5.70139 13.1319 3.86806 11.2986 2.52083 8.97917C1.17361 6.65972 0.5 4.125 0.5 1.375C0.5 1.15278 0.590278 0.951389 0.770833 0.770833C0.951389 0.590278 1.15278 0.5 1.375 0.5H4.5C4.75 0.5 4.95833 0.590278 5.125 0.770833C5.29167 0.951389 5.375 1.15278 5.375 1.375C5.375 2.48611 5.54167 3.54167 5.875 4.54167C5.98611 4.90278 5.91667 5.20833 5.66667 5.45833L3.70833 7.41667Z" fill="#161E61"/>
    </g>
    <defs>
      <clipPath id="clip0_465_817">
        <rect width="16" height="16" fill="white" transform="translate(0.5 0.5)"/>
      </clipPath>
    </defs>
  </symbol>
  <symbol id="subway" viewBox="0 0 24 24">
    <g>
      <path d="M16.603 11.85l-2.481-6.26-2.092 3.66-2.092-3.66-2.481 6.262H6.74v.941h3.736v-.941h-.553l.538-1.555 1.569 2.57 1.569-2.57.538 1.555h-.553v.941h3.751v-.941zm5.335-1.912A9.933 9.933 0 0 0 12 0C6.516 0 2.062 4.453 2.062 9.938c0 2.75 1.121 5.23 2.914 7.023a.804.804 0 0 0 1.375-.568.825.825 0 0 0-.239-.582 8.303 8.303 0 0 1-2.42-5.873c0-4.588 3.72-8.324 8.308-8.324 4.588 0 8.324 3.736 8.324 8.324a8.289 8.289 0 0 1-2.436 5.888l-7.024 7.023L12 24l7.039-7.039a9.891 9.891 0 0 0 2.899-7.023Z"/>
    </g>
  </symbol>
</svg>
