<svg width="17" height="17" viewBox="0 0 17 17" fill="none" xmlns="http://www.w3.org/2000/svg">
<g clip-path="url(#clip0_465_817)">
<path d="M3.70833 7.41667C5.01389 10 6.97222 11.9583 9.58333 13.2917L11.5417 11.3333C11.7917 11.0556 12.0972 10.9861 12.4583 11.125C13.4583 11.4583 14.5139 11.625 15.625 11.625C15.8472 11.625 16.0486 11.7083 16.2292 11.875C16.4097 12.0417 16.5 12.25 16.5 12.5V15.625C16.5 15.8472 16.4097 16.0486 16.2292 16.2292C16.0486 16.4097 15.8472 16.5 15.625 16.5C12.875 16.5 10.3403 15.8264 8.02083 14.4792C5.70139 13.1319 3.86806 11.2986 2.52083 8.97917C1.17361 6.65972 0.5 4.125 0.5 1.375C0.5 1.15278 0.590278 0.951389 0.770833 0.770833C0.951389 0.590278 1.15278 0.5 1.375 0.5H4.5C4.75 0.5 4.95833 0.590278 5.125 0.770833C5.29167 0.951389 5.375 1.15278 5.375 1.375C5.375 2.48611 5.54167 3.54167 5.875 4.54167C5.98611 4.90278 5.91667 5.20833 5.66667 5.45833L3.70833 7.41667Z" fill="#161E61"/>
</g>
<defs>
<clipPath id="clip0_465_817">
<rect width="16" height="16" fill="white" transform="translate(0.5 0.5)"/>
</clipPath>
</defs>
</svg>
