<!-- icon666.com - MILLIONS vector ICONS FREE --><svg id="Capa_1" enable-background="new 0 0 512 512" viewBox="0 0 512 512" xmlns="http://www.w3.org/2000/svg"><g><path d="m354.221 35.342h-42.49c-10.083-21.337-31.846-35.342-55.731-35.342s-45.648 14.005-55.731 35.342h-42.49c-20.706 0-37.551 16.845-37.551 37.551v216.964c0 4.15 3.364 7.515 7.515 7.515s7.515-3.365 7.515-7.515v-216.963c0-12.419 10.103-22.522 22.522-22.522h148.95c.009 0 .017.002.026.002.015 0 .03-.002.045-.002h47.422c12.419 0 22.522 10.103 22.522 22.522v401.555c0 12.419-10.103 22.522-22.522 22.522h-50.703c-4.151 0-7.515 3.365-7.515 7.515s3.364 7.515 7.515 7.515h50.703c20.706 0 37.551-16.845 37.551-37.551v-401.556c-.002-20.706-16.847-37.552-37.553-37.552zm-98.221-20.313c15.543 0 29.894 7.845 38.454 20.313h-76.908c8.56-12.468 22.911-20.313 38.454-20.313z" fill="#000000" style="fill: rgb(255, 255, 255);"></path><path d="m273.459 496.971h-115.68c-12.419 0-22.522-10.103-22.522-22.522v-154.532c0-4.15-3.364-7.515-7.515-7.515s-7.515 3.364-7.515 7.515v154.532c0 20.706 16.845 37.551 37.551 37.551h115.68c4.151 0 7.515-3.365 7.515-7.515.001-4.15-3.363-7.514-7.514-7.514z" fill="#000000" style="fill: rgb(255, 255, 255);"></path><path d="m199.906 312.238c13.85 12.544 34.916 14.565 47.051 14.565.528 0 1.034-.005 1.527-.012v28.351c0 4.15 3.364 7.515 7.515 7.515s7.515-3.365 7.515-7.515v-28.351c.494.007 1.001.012 1.53.012 12.136 0 33.202-2.021 47.05-14.564 20.421-18.495 16.081-51.082 15.887-52.46-.477-3.385-3.18-6.02-6.575-6.413-1.482-.172-36.523-3.999-56.522 14.113-3.731 3.38-6.628 7.232-8.883 11.277-2.254-4.044-5.151-7.897-8.883-11.277 0 0 0 0-.001 0-19.995-18.111-55.04-14.284-56.52-14.113-3.395.393-6.098 3.029-6.575 6.413-.196 1.378-4.536 33.965 15.884 52.459zm75.066-33.621c10.713-9.703 28.937-10.818 38.48-10.651.084 8.518-1.314 23.955-11.447 33.133-10.712 9.704-28.943 10.815-38.478 10.652-.086-8.519 1.313-23.957 11.445-33.134zm-37.944 0c10.134 9.18 11.53 24.621 11.446 33.133-9.539.165-27.768-.949-38.479-10.652-10.135-9.18-11.531-24.621-11.446-33.132 9.54-.163 27.767.95 38.479 10.651z" fill="#000000" style="fill: rgb(255, 255, 255);"></path><path d="m343.347 481.421c9.664 0 17.526-7.862 17.526-17.527v-380.445c0-9.664-7.862-17.527-17.526-17.527h-174.694c-9.664 0-17.526 7.863-17.526 17.527v380.445c0 9.664 7.862 17.527 17.526 17.527zm-177.191-17.527v-324.287h42.327c4.151 0 7.515-3.364 7.515-7.515 0-4.15-3.364-7.515-7.515-7.515h-42.327v-41.128c0-1.377 1.12-2.497 2.497-2.497h174.695c1.377 0 2.497 1.12 2.497 2.497v41.129h-107.304c-4.151 0-7.515 3.365-7.515 7.515s3.364 7.515 7.515 7.515h107.303v324.287c0 1.377-1.12 2.498-2.497 2.498h-174.694c-1.377-.002-2.497-1.122-2.497-2.499z" fill="#000000" style="fill: rgb(255, 255, 255);"></path></g></svg>